<svg width="94" height="230" viewBox="0 0 94 230" fill="none" xmlns="http://www.w3.org/2000/svg">
<path fill-rule="evenodd" clip-rule="evenodd" d="M89.5792 127.841H81.6279V124.16H89.5792C91.8156 124.16 93.6285 125.973 93.6285 128.209V149.599C93.6285 152.8 91.456 155.592 88.3537 156.379L43.6615 167.714C43.1716 167.838 42.8286 168.279 42.8286 168.784V192.997H39.1475V168.784C39.1475 166.594 40.6339 164.684 42.7565 164.146L87.4488 152.811C88.9183 152.438 89.9473 151.115 89.9473 149.599V128.209C89.9473 128.006 89.7825 127.841 89.5792 127.841Z" fill="#39416B"/>
<path fill-rule="evenodd" clip-rule="evenodd" d="M47.1606 173.407H34.8262L35.5517 175.584V227.824C35.5517 229.026 36.5262 230 37.7284 230H44.2583C45.4605 230 46.435 229.026 46.435 227.824V175.584L47.1606 173.407ZM40.9932 223.471C39.9914 223.471 39.1793 224.283 39.1793 225.284C39.1793 226.286 39.9914 227.098 40.9932 227.098C41.995 227.098 42.8071 226.286 42.8071 225.284C42.8071 224.283 41.995 223.471 40.9932 223.471Z" fill="#F2994A"/>
<g opacity="0.55">
<path d="M36.2773 174.133H45.7095L45.1547 176.254V177.398H36.8322V176.254L36.2773 174.133Z" fill="#F2C94C"/>
<path fill-rule="evenodd" clip-rule="evenodd" d="M36.8322 198.116V227.098C36.8322 228.3 37.8067 229.275 39.0088 229.275H42.978C44.1802 229.275 45.1547 228.3 45.1547 227.098V190.994C42.0772 193.603 38.9663 196.257 36.8322 198.116ZM43.5326 225.284C43.5326 226.687 42.3957 227.824 40.9932 227.824C39.5907 227.824 38.4538 226.687 38.4538 225.284C38.4538 223.882 39.5907 222.745 40.9932 222.745C42.3957 222.745 43.5326 223.882 43.5326 225.284Z" fill="#F2C94C"/>
</g>
<rect y="116.814" width="81.9874" height="18.8644" rx="5.07886" fill="#39416B"/>
<rect x="1.45117" y="113.912" width="79.0852" height="24.6688" rx="2.90221" fill="#CED0DA"/>
<rect x="4.35352" y="113.912" width="73.2808" height="24.6688" fill="url(#paint0_linear)"/>
<path d="M38.454 2.9022C38.454 1.29936 39.7534 0 41.3562 0C42.9591 0 44.2584 1.29936 44.2584 2.90221V13.096C44.2778 14.6822 45.5697 15.962 47.1604 15.962C48.7632 15.962 50.0626 14.6627 50.0626 13.0599L50.0628 11.2461C50.0628 9.84357 51.1998 8.70662 52.6023 8.70662C54.0048 8.70662 55.1417 9.84357 55.1417 11.2461V16.7238C55.1611 18.3099 56.4529 19.5898 58.0437 19.5898C59.6465 19.5898 60.9459 18.2904 60.9459 16.6876L60.9461 2.9022C60.9461 1.29936 62.2455 0 63.8483 0C65.4512 0 66.7505 1.29936 66.7505 2.90221V13.4565C66.7687 14.8433 67.8986 15.962 69.2897 15.962C70.6922 15.962 71.8292 14.8251 71.8292 13.4226L71.8294 8.70662C71.8294 7.10378 73.1288 5.80442 74.7316 5.80442C76.3344 5.80442 77.6338 7.10378 77.6338 8.70662L77.6338 47.8864H5.07861V11.2461C5.07861 9.84357 6.21556 8.70662 7.61805 8.70662C9.02053 8.70662 10.1575 9.84357 10.1575 11.2461V19.9616C10.5583 21.1467 11.6795 21.9999 13 21.9999C14.4936 21.9999 15.7323 20.9083 15.9619 19.4794V7.98107C15.9619 6.37823 17.2613 5.07886 18.8641 5.07886C20.4669 5.07886 21.7663 6.37823 21.7663 7.98107V13.0599H22V26.4999C22 27.8806 23.1193 28.9999 24.5 28.9999C25.5755 28.9999 26.4924 28.3208 26.8452 27.368V11.6088C26.8452 10.006 28.1445 8.70662 29.7474 8.70662C31.3502 8.70662 32.6496 10.006 32.6496 11.6088V16.7239C32.6691 18.31 33.9609 19.5898 35.5516 19.5898C37.1544 19.5898 38.4538 18.2904 38.4538 16.6876L38.454 2.9022Z" fill="url(#paint1_linear)"/>
<rect x="5.0791" y="47.8862" width="72.5552" height="66.0252" fill="url(#paint2_linear)"/>
<path d="M22.563 85.6201H25.4645C26.7866 85.6201 27.7453 85.8093 28.3405 86.1877C28.9399 86.5618 29.2396 87.1591 29.2396 87.9796C29.2396 88.5365 29.1078 88.9935 28.8443 89.3506C28.5849 89.7077 28.2384 89.9224 27.8048 89.9947V90.0585C28.3957 90.1902 28.8209 90.4368 29.0802 90.7982C29.3438 91.1595 29.4756 91.6399 29.4756 92.2394C29.4756 93.0896 29.1674 93.7528 28.5509 94.229C27.9387 94.7051 27.1055 94.9432 26.0512 94.9432H22.563V85.6201ZM24.5398 89.3124H25.6877C26.2233 89.3124 26.6102 89.2295 26.8483 89.0637C27.0906 88.8979 27.2118 88.6236 27.2118 88.241C27.2118 87.8839 27.08 87.6288 26.8164 87.4758C26.5571 87.3185 26.1447 87.2399 25.5793 87.2399H24.5398V89.3124ZM24.5398 90.8811V93.3107H25.828C26.3721 93.3107 26.7739 93.2065 27.0332 92.9982C27.2925 92.7899 27.4222 92.4711 27.4222 92.0417C27.4222 91.2679 26.8695 90.8811 25.7642 90.8811H24.5398Z" fill="white"/>
<path d="M37.7656 89.6822C37.7656 90.0648 37.6444 90.3922 37.4021 90.6643C37.164 90.9321 36.8112 91.1043 36.3435 91.1808V91.2318C36.8494 91.2913 37.249 91.4656 37.5424 91.7547C37.84 92.0396 37.9888 92.3924 37.9888 92.8133C37.9888 93.5062 37.7167 94.0355 37.1725 94.4011C36.6284 94.7625 35.8504 94.9432 34.8386 94.9432H31.1846V87.8138H34.8386C35.8164 87.8138 36.5476 87.9732 37.0322 88.292C37.5211 88.6066 37.7656 89.07 37.7656 89.6822ZM35.9737 92.7113C35.9737 92.4307 35.8652 92.2287 35.6484 92.1054C35.4316 91.9779 35.1064 91.9141 34.6728 91.9141H33.1295V93.5976H34.711C35.1234 93.5976 35.4359 93.5211 35.6484 93.3681C35.8652 93.2108 35.9737 92.9918 35.9737 92.7113ZM35.7951 89.8353C35.7951 89.4016 35.4507 89.1848 34.762 89.1848H33.1295V90.5941H34.5388C34.9512 90.5941 35.2637 90.5346 35.4763 90.4156C35.6888 90.2965 35.7951 90.1031 35.7951 89.8353Z" fill="white"/>
<path d="M42.4909 89.0637C42.0785 89.0637 41.7554 89.1954 41.5216 89.459C41.2878 89.7184 41.1538 90.0882 41.1198 90.5686H43.8492C43.8407 90.0882 43.7152 89.7184 43.4729 89.459C43.2306 89.1954 42.9032 89.0637 42.4909 89.0637ZM42.7651 95.0707C41.6172 95.0707 40.7202 94.754 40.074 94.1206C39.4278 93.4871 39.1047 92.5901 39.1047 91.4295C39.1047 90.2349 39.4023 89.3124 39.9975 88.6619C40.5969 88.0072 41.4238 87.6799 42.4781 87.6799C43.4857 87.6799 44.27 87.9668 44.8312 88.5407C45.3924 89.1147 45.673 89.9075 45.673 90.9193V91.8631H41.0752C41.0965 92.4158 41.2601 92.8473 41.5662 93.1576C41.8723 93.468 42.3017 93.6232 42.8544 93.6232C43.2837 93.6232 43.6897 93.5785 44.0723 93.4892C44.455 93.4 44.8546 93.2575 45.2712 93.062V94.5669C44.9311 94.737 44.5676 94.8624 44.1808 94.9432C43.7939 95.0282 43.322 95.0707 42.7651 95.0707Z" fill="white"/>
<path d="M51.1699 95.0707C50.3324 95.0707 49.6755 94.7667 49.1994 94.1588H49.0974C49.1654 94.754 49.1994 95.0983 49.1994 95.1919V98.0806H47.2544V87.8138H48.8359L49.1101 88.7384H49.1994C49.6543 88.0327 50.3281 87.6799 51.2209 87.6799C52.0626 87.6799 52.7216 88.0051 53.1977 88.6555C53.6739 89.306 53.9119 90.2094 53.9119 91.3657C53.9119 92.1267 53.7993 92.7878 53.574 93.3489C53.3529 93.9101 53.0362 94.3374 52.6238 94.6307C52.2114 94.924 51.7268 95.0707 51.1699 95.0707ZM50.5959 89.2358C50.1155 89.2358 49.7648 89.3846 49.5437 89.6822C49.3227 89.9756 49.2079 90.4623 49.1994 91.1425V91.353C49.1994 92.1182 49.3121 92.6666 49.5374 92.9982C49.7669 93.3298 50.1283 93.4956 50.6214 93.4956C51.493 93.4956 51.9287 92.7771 51.9287 91.3402C51.9287 90.6388 51.8203 90.1137 51.6035 89.7651C51.3909 89.4123 51.0551 89.2358 50.5959 89.2358Z" fill="white"/>
<path d="M56.9792 91.302L54.6835 87.8138H56.89L58.2738 90.084L59.6703 87.8138H61.8767L59.5555 91.302L61.9851 94.9432H59.7723L58.2738 92.5008L56.7688 94.9432H54.5624L56.9792 91.302Z" fill="white"/>
<path d="M31.6287 68.8362L42.2947 57.5428C42.5754 57.2456 43.0462 57.2389 43.3353 57.5279L54.6287 68.8214C55.0858 69.2784 54.762 70.06 54.1156 70.06H47.8862V78.041C47.8862 78.8425 47.2365 79.4921 46.4351 79.4921H39.1796C38.3782 79.4921 37.7285 78.8425 37.7285 78.041V70.06H32.1562C31.5197 70.06 31.1917 69.2989 31.6287 68.8362Z" fill="white"/>
<defs>
<linearGradient id="paint0_linear" x1="40.9939" y1="113.912" x2="40.9939" y2="138.58" gradientUnits="userSpaceOnUse">
<stop stop-color="#2B82F8"/>
<stop offset="0.190625" stop-color="#5DA2FF"/>
<stop offset="0.602083" stop-color="#5DA2FF"/>
<stop offset="1" stop-color="#0056C9"/>
</linearGradient>
<linearGradient id="paint1_linear" x1="5.07861" y1="11.5769" x2="77.6338" y2="11.5769" gradientUnits="userSpaceOnUse">
<stop stop-color="#4390F8"/>
<stop offset="0.648958" stop-color="#4390F7"/>
<stop offset="0.649058" stop-color="#2F80ED"/>
</linearGradient>
<linearGradient id="paint2_linear" x1="5.0791" y1="63.8484" x2="77.6343" y2="63.8484" gradientUnits="userSpaceOnUse">
<stop stop-color="#4390F8"/>
<stop offset="0.648958" stop-color="#4390F7"/>
<stop offset="0.649058" stop-color="#2F80ED"/>
</linearGradient>
</defs>
</svg>
