<svg width="64" height="64" viewBox="0 0 64 64" fill="none" xmlns="http://www.w3.org/2000/svg">
<g clip-path="url(#clip0)">
<path d="M19.6839 54.2453H10.9339C10.2483 54.2453 9.6906 53.6876 9.6906 53.0019V42.8104C9.6906 42.2914 9.26983 41.8707 8.75082 41.8707C8.23181 41.8707 7.81104 42.2914 7.81104 42.8104V53.0019C7.81104 54.724 9.21194 56.1249 10.9339 56.1249H19.684C20.203 56.1249 20.6238 55.7041 20.6238 55.1851C20.6238 54.6661 20.2029 54.2453 19.6839 54.2453Z" fill="#F2994A"/>
<path d="M8.75082 39.7451C9.26983 39.7451 9.6906 39.3243 9.6906 38.8053V3.12296C9.6906 2.43729 10.2483 1.87956 10.9339 1.87956H43.1304C43.6494 1.87956 44.0702 1.45879 44.0702 0.939782C44.0702 0.420772 43.6494 0 43.1304 0H10.934C9.21194 0 7.81104 1.4009 7.81104 3.12296V38.8055C7.81104 39.3245 8.23181 39.7451 8.75082 39.7451Z" fill="#F2994A"/>
<path d="M53.0662 0H47.1354C46.6164 0 46.1956 0.420772 46.1956 0.939782C46.1956 1.45879 46.6164 1.87956 47.1354 1.87956H53.0662C53.7517 1.87956 54.3094 2.43729 54.3094 3.12296V53.0019C54.3094 53.6876 53.7517 54.2453 53.0662 54.2453H44.1908C43.6717 54.2453 43.251 54.6661 43.251 55.1851C43.251 55.7041 43.6717 56.1249 44.1908 56.1249H53.0662C54.7881 56.1249 56.189 54.724 56.189 53.0019V3.12296C56.189 1.4009 54.7881 0 53.0662 0V0Z" fill="#F2994A"/>
<path d="M44.9105 45.2339C44.9105 42.6261 44.1395 40.111 42.6808 37.9603C42.3894 37.5307 41.8051 37.4187 41.3755 37.71C40.946 38.0014 40.834 38.5858 41.1253 39.0153C42.3719 40.8534 43.0309 43.0038 43.0309 45.2339C43.0309 51.351 38.0543 56.3277 31.9371 56.3277C25.8199 56.3277 20.8433 51.351 20.8433 45.2339C20.8433 39.1168 25.8199 34.1401 31.9371 34.1401C34.3482 34.1401 36.6408 34.9002 38.567 36.3383C38.9828 36.6488 39.5718 36.5634 39.8823 36.1475C40.1928 35.7316 40.1073 35.1427 39.6914 34.8322C37.438 33.1497 34.7566 32.2606 31.9372 32.2606C24.7837 32.2606 18.9639 38.0803 18.9639 45.2339C18.9639 49.6598 21.1922 53.5744 24.5853 55.9169V62.2692C24.5853 62.7914 24.8178 63.2797 25.2233 63.6089C25.6288 63.938 26.1543 64.0653 26.6658 63.9579L31.798 62.879L37.0916 63.9644C37.2078 63.9882 37.3246 64 37.4407 64C37.8341 64 38.2176 63.8653 38.5291 63.6111C38.9325 63.282 39.1639 62.7946 39.1639 62.2739V56.003C42.6274 53.6712 44.9105 49.7143 44.9105 45.2339ZM26.4648 62.0796V56.9949C27.0603 57.273 27.6799 57.5075 28.3201 57.6936V61.6895L26.4648 62.0796ZM31.6023 60.9996L30.1995 61.2944V58.0906C30.7682 58.1671 31.3479 58.2073 31.9371 58.2073C32.4288 58.2073 32.914 58.1789 33.3916 58.1254V61.2873L31.9844 60.9987C31.8583 60.9728 31.7282 60.9732 31.6023 60.9996ZM37.2843 62.0854L35.2713 61.6726V57.7723C35.9668 57.5872 36.6397 57.3462 37.2843 57.0535V62.0854Z" fill="#F2994A"/>
<path d="M31.9374 36.0197C26.8567 36.0197 22.7231 40.1531 22.7231 45.234C22.7231 50.3148 26.8566 54.4482 31.9374 54.4482C37.0182 54.4482 41.1517 50.3147 41.1517 45.234C41.1517 40.1533 37.0181 36.0197 31.9374 36.0197ZM31.9374 52.5687C27.8931 52.5687 24.6027 49.2783 24.6027 45.234C24.6027 41.1896 27.893 37.8993 31.9374 37.8993C35.9818 37.8993 39.2721 41.1896 39.2721 45.234C39.272 49.2784 35.9817 52.5687 31.9374 52.5687Z" fill="#F2994A"/>
<path d="M35.6992 42.4448L34.1296 42.2167L33.4276 40.7944C33.1456 40.223 32.5746 39.868 31.9374 39.868C31.3002 39.868 30.7292 40.223 30.4472 40.7944L29.7452 42.2167L28.1755 42.4448C27.545 42.5364 27.031 42.9698 26.834 43.5758C26.6372 44.1818 26.7983 44.8345 27.2545 45.2793L28.3903 46.3864L28.1221 47.9497C28.0144 48.5776 28.2677 49.2003 28.7831 49.575C29.2986 49.9495 29.9691 49.998 30.5334 49.7015L31.9373 48.9635L33.3412 49.7015C33.5865 49.8305 33.8519 49.8943 34.1161 49.8941C34.4592 49.8941 34.8001 49.7866 35.0914 49.575C35.6068 49.2005 35.8602 48.5777 35.7524 47.9498L35.4843 46.3865L36.62 45.2794C37.0764 44.8347 37.2374 44.182 37.0405 43.5759C36.8438 42.9699 36.3298 42.5365 35.6992 42.4448ZM34.0906 45.1203C33.6988 45.5022 33.5201 46.0522 33.6126 46.5912L33.8255 47.8325L32.711 47.2466C32.4688 47.1191 32.2032 47.0555 31.9375 47.0555C31.6719 47.0555 31.4064 47.1191 31.1643 47.2465L30.0496 47.8325L30.2625 46.5914C30.3549 46.0521 30.1762 45.5022 29.7845 45.1204L28.8827 44.2414L30.1291 44.0603C30.6704 43.9817 31.1381 43.6418 31.3802 43.1513L31.9375 42.022L32.4949 43.1513C32.737 43.6418 33.2047 43.9815 33.7462 44.0603L34.9924 44.2414L34.0906 45.1203Z" fill="#F2994A"/>
<path d="M46.4647 52.3657H49.9123C50.3074 52.3657 50.6788 52.2118 50.9581 51.9324L51.9965 50.894C52.2758 50.6147 52.4298 50.2432 52.4298 49.8482V6.42031C52.4298 6.02522 52.2759 5.65382 51.9965 5.37439L50.8144 4.19227C50.535 3.91297 50.1635 3.75897 49.7684 3.75897H14.1059C13.7108 3.75897 13.3394 3.91285 13.0599 4.19227L12.0031 5.24909C11.7238 5.52839 11.5698 5.89992 11.5698 6.295V49.9735C11.5698 50.3685 11.7237 50.74 12.0031 51.0193L12.9162 51.9324C13.1955 52.2117 13.5669 52.3657 13.962 52.3657H17.4096C17.9286 52.3657 18.3494 51.945 18.3494 51.4259C18.3494 50.9069 17.9286 50.4862 17.4096 50.4862H14.1279L13.4494 49.8076V6.46091L14.2718 5.63866H49.6028L50.5503 6.58621V49.6823L49.7465 50.4862H46.4648C45.9458 50.4862 45.525 50.9069 45.525 51.4259C45.525 51.945 45.9457 52.3657 46.4647 52.3657Z" fill="#F2994A"/>
<path d="M19.6633 17.2898H44.086C45.1814 17.2898 46.0726 16.3986 46.0726 15.3032V11.0434C46.0726 9.94799 45.1814 9.05682 44.086 9.05682H19.6633C18.5679 9.05682 17.6768 9.94799 17.6768 11.0434V15.3032C17.6768 16.3986 18.5679 17.2898 19.6633 17.2898ZM19.5563 11.0434C19.5563 10.9844 19.6043 10.9364 19.6633 10.9364H44.086C44.145 10.9364 44.193 10.9844 44.193 11.0434V15.3032C44.193 15.3623 44.145 15.4102 44.086 15.4102H19.6633C19.6043 15.4102 19.5563 15.3623 19.5563 15.3032V11.0434Z" fill="#F2994A"/>
<path d="M18.6165 21.4628H45.1329C45.6519 21.4628 46.0727 21.042 46.0727 20.523C46.0727 20.004 45.6519 19.5833 45.1329 19.5833H18.6165C18.0975 19.5833 17.6768 20.004 17.6768 20.523C17.6768 21.042 18.0974 21.4628 18.6165 21.4628Z" fill="#F2994A"/>
<path d="M18.6165 26.157H45.1329C45.6519 26.157 46.0727 25.7363 46.0727 25.2172C46.0727 24.6982 45.6519 24.2775 45.1329 24.2775H18.6165C18.0975 24.2775 17.6768 24.6982 17.6768 25.2172C17.6768 25.7363 18.0974 26.157 18.6165 26.157Z" fill="#F2994A"/>
<path d="M18.6165 30.8511H45.1329C45.6519 30.8511 46.0727 30.4304 46.0727 29.9113C46.0727 29.3923 45.6519 28.9716 45.1329 28.9716H18.6165C18.0975 28.9716 17.6768 29.3923 17.6768 29.9113C17.6768 30.4304 18.0974 30.8511 18.6165 30.8511Z" fill="#F2994A"/>
</g>
<defs>
<clipPath id="clip0">
<rect width="64" height="64" fill="white"/>
</clipPath>
</defs>
</svg>
