<svg width="24" height="24" viewBox="0 0 24 24" fill="none" xmlns="http://www.w3.org/2000/svg">
<path d="M24 7.9295V17.6999C24.0001 18.6961 23.6189 19.6545 22.9348 20.3786C22.2507 21.1027 21.3154 21.5375 20.3208 21.5939L20.1 21.5999H3.9C2.90384 21.6 1.94541 21.2188 1.22132 20.5347C0.49724 19.8506 0.0623984 18.9153 0.00600014 17.9207L0 17.6999V7.9295L11.5824 13.9967C11.7113 14.0642 11.8545 14.0994 12 14.0994C12.1455 14.0994 12.2887 14.0642 12.4176 13.9967L24 7.9295ZM3.9 2.3999H20.1C21.0667 2.39979 21.999 2.7587 22.716 3.40702C23.4331 4.05535 23.8838 4.94688 23.9808 5.9087L12 12.1847L0.0192 5.9087C0.112228 4.98508 0.53166 4.12492 1.2021 3.48286C1.87254 2.84079 2.75002 2.45893 3.6768 2.4059L3.9 2.3999H20.1H3.9Z" fill="white"/>
</svg>
