<svg width="64" height="64" viewBox="0 0 64 64" fill="none" xmlns="http://www.w3.org/2000/svg">
<path d="M20.8678 26.0316H14.4253C13.8899 26.0316 13.373 26.2901 13.373 26.7883V38.7688C13.373 39.2673 13.9638 39.5258 14.5728 39.5258C15.1635 39.5258 15.7727 39.2673 15.7727 38.7688V33.7109H18.5971C19.1139 33.7109 19.3353 33.2124 19.3353 32.7877C19.3353 32.2894 19.0769 31.8277 18.5971 31.8277H15.7727V28.1358H20.8676C21.3474 28.1358 21.6058 27.6376 21.6058 27.0653C21.6061 26.5669 21.3846 26.0316 20.8678 26.0316Z" fill="#F2994A"/>
<path d="M31.5568 38.0676L29.1386 33.5817C30.5231 33.1574 31.5567 32.0127 31.5567 29.8899C31.5567 26.9547 29.6001 26.0317 27.1817 26.0317H23.5267C23.0652 26.0317 22.7515 26.3826 22.7515 26.7701V38.769C22.7515 39.2675 23.3605 39.526 23.9512 39.526C24.5603 39.526 25.1511 39.2675 25.1511 38.769V33.9511H26.7018L29.3231 39.046C29.5076 39.4151 29.8215 39.6184 30.1538 39.6184C30.8553 39.6184 31.6491 38.9722 31.6491 38.3631C31.6491 38.2891 31.6307 38.16 31.5568 38.0676ZM27.1817 32.068H25.1512V28.136H27.1817C28.3816 28.136 29.157 28.653 29.157 30.1112C29.157 31.5697 28.3817 32.068 27.1817 32.068Z" fill="#F2994A"/>
<path d="M40.8973 37.4215H35.6732V33.7112H38.4791C38.9959 33.7112 39.2358 33.2127 39.2358 32.788C39.2358 32.2897 38.9589 31.828 38.4791 31.828H35.6732V28.1361H40.8973V28.136C41.3772 28.136 41.6542 27.6377 41.6542 27.0655C41.6542 26.567 41.4142 26.0317 40.8973 26.0317H34.3257C33.7903 26.0317 33.2734 26.2902 33.2734 26.7885V38.769C33.2734 39.2675 33.7903 39.526 34.3257 39.526H40.8973C41.4142 39.526 41.6542 38.9906 41.6542 38.4922C41.6542 37.9199 41.3772 37.4215 40.8973 37.4215Z" fill="#F2994A"/>
<path d="M50.682 37.4215H45.4579V33.7112H48.2637C48.7806 33.7112 49.0205 33.2127 49.0205 32.788C49.0205 32.2897 48.7435 31.828 48.2637 31.828H45.4579V28.1361H50.682V28.136C51.1619 28.136 51.4389 27.6377 51.4389 27.0655C51.4389 26.567 51.1989 26.0317 50.682 26.0317H44.1104C43.575 26.0317 43.0581 26.2902 43.0581 26.7885V38.769C43.0581 39.2675 43.575 39.526 44.1104 39.526H50.682C51.1989 39.526 51.4389 38.9906 51.4389 38.4922C51.4389 37.9199 51.162 37.4215 50.682 37.4215Z" fill="#F2994A"/>
<path d="M57.764 31.3184C57.7607 31.1909 57.7544 31.064 57.7494 30.9369C57.7455 30.8419 57.7428 30.7467 57.7379 30.652C57.729 30.4782 57.7172 30.305 57.7048 30.1319C57.7017 30.0881 57.6993 30.044 57.6959 30.0004C57.6803 29.7959 57.6618 29.592 57.6414 29.3885C57.6405 29.38 57.6399 29.3714 57.639 29.3629C57.3497 26.4985 56.5877 23.7291 55.3598 21.1014C55.3452 21.0701 55.3275 21.0409 55.3098 21.0119C51.1775 12.2815 42.2832 6.22723 32.0002 6.22723C21.7174 6.22723 12.8232 12.2811 8.69091 21.0114C8.67304 21.0407 8.65529 21.0701 8.64054 21.1017C7.41254 23.7295 6.65066 26.4991 6.36141 29.3635C6.36054 29.3715 6.35991 29.3796 6.35916 29.3876C6.33866 29.5916 6.32016 29.796 6.30454 30.0007C6.30116 30.0442 6.29879 30.0881 6.29566 30.1317C6.28329 30.305 6.27141 30.4784 6.26266 30.6521C6.25779 30.7471 6.25504 30.8425 6.25116 30.9376C6.24604 31.0645 6.23991 31.1911 6.23666 31.3184C6.23079 31.5449 6.22754 31.7722 6.22754 32.0001C6.22754 32.228 6.23079 32.4554 6.23666 32.6819C6.23991 32.8091 6.24616 32.9357 6.25116 33.0626C6.25504 33.1577 6.25779 33.2532 6.26266 33.3481C6.27154 33.522 6.28354 33.6954 6.29566 33.8685C6.29879 33.912 6.30116 33.956 6.30454 33.9995C6.32016 34.2045 6.33866 34.4087 6.35916 34.6126C6.35991 34.6206 6.36066 34.6287 6.36141 34.6367C6.65079 37.5011 7.41266 40.2706 8.64054 42.8985C8.65529 42.93 8.67304 42.9595 8.69091 42.9889C12.8233 51.7189 21.7174 57.7727 32.0002 57.7727C42.2832 57.7727 51.1775 51.7185 55.3098 42.988C55.3275 42.9589 55.345 42.9297 55.3598 42.8985C56.5878 40.2707 57.3497 37.5014 57.639 34.637C57.6399 34.6285 57.6407 34.6199 57.6414 34.6114C57.6618 34.4079 57.6803 34.2039 57.6959 33.9995C57.6993 33.9559 57.7017 33.9117 57.7048 33.868C57.7172 33.6949 57.729 33.5216 57.7379 33.3479C57.7428 33.2531 57.7455 33.158 57.7494 33.063C57.7545 32.936 57.7607 32.8091 57.764 32.6817C57.7699 32.4551 57.7732 32.2279 57.7732 32C57.7732 31.7721 57.7698 31.5449 57.764 31.3184ZM53.9013 41.5667H49.5587C49.0419 41.5667 48.6232 41.9855 48.6232 42.5022C48.6232 43.019 49.042 43.4377 49.5587 43.4377H52.9824C48.9212 50.8579 41.0389 55.9014 32.0003 55.9014C22.9617 55.9014 15.0793 50.8581 11.0182 43.4379H45.2055C45.7223 43.4379 46.141 43.0191 46.141 42.5024C46.141 41.9856 45.7222 41.5669 45.2055 41.5669H10.099C8.81366 38.6359 8.09854 35.4001 8.09854 32.0001C8.09854 28.6001 8.81379 25.3645 10.099 22.4334H14.4417C14.9584 22.4334 15.3772 22.0146 15.3772 21.4979C15.3772 20.9811 14.9583 20.5624 14.4417 20.5624H11.0179C15.0792 13.1419 22.9614 8.09848 32 8.09848C41.0387 8.09848 48.921 13.142 52.9822 20.5621H18.7949C18.2782 20.5621 17.8594 20.9809 17.8594 21.4976C17.8594 22.0144 18.2783 22.4331 18.7949 22.4331H53.9012C55.1865 25.3641 55.9017 28.5999 55.9017 31.9999C55.9017 35.3999 55.1867 38.6356 53.9013 41.5667Z" fill="#F2994A"/>
<path d="M62.6492 30.2006C63.4414 29.1073 63.7484 27.7729 63.5139 26.4433C63.2795 25.1136 62.5344 23.9649 61.4162 23.2084C60.3155 22.4638 59.821 21.1046 60.1854 19.8266C60.5556 18.5284 60.3879 17.1695 59.7127 16.0002C59.0377 14.831 57.9447 14.0061 56.6351 13.6776C55.3461 13.3542 54.4165 12.2463 54.3219 10.9207C54.2259 9.574 53.6032 8.3545 52.569 7.48675C51.5347 6.619 50.2255 6.21775 48.8827 6.35687C47.5607 6.49412 46.3084 5.77087 45.7662 4.5575C45.2154 3.32487 44.2131 2.39175 42.9446 1.93C41.6759 1.46837 40.3084 1.53888 39.0941 2.12913C37.8991 2.70963 36.4747 2.459 35.5501 1.50425C34.6109 0.534125 33.3501 0 32 0C30.6499 0 29.3891 0.534125 28.4497 1.50388C27.5252 2.45863 26.101 2.70975 24.9056 2.12862C23.6914 1.5385 22.3239 1.46788 21.0552 1.92963C19.7866 2.39138 18.7844 3.3245 18.2335 4.55713C17.6912 5.7705 16.4385 6.49325 15.117 6.3565C13.774 6.21763 12.4649 6.61862 11.4307 7.48637C10.3965 8.35413 9.77399 9.57362 9.67786 10.9204C9.58324 12.2459 8.65361 13.3539 7.36461 13.6772C6.05499 14.0057 4.96211 14.8306 4.28699 15.9999C3.61186 17.1691 3.44411 18.5279 3.81436 19.8263C4.17874 21.1044 3.68424 22.4634 2.58349 23.208C1.46524 23.9645 0.72036 25.1134 0.48586 26.443C0.251485 27.7726 0.558485 29.1069 1.35061 30.2004C2.13024 31.2766 2.13024 32.7229 1.35061 33.7993C0.558485 34.8926 0.251485 36.227 0.48586 37.5566C0.720235 38.8862 1.46536 40.035 2.58349 40.7915C3.68424 41.5361 4.17874 42.8952 3.81436 44.1732C3.44411 45.4715 3.61186 46.8304 4.28699 47.9996C4.96199 49.1689 6.05499 49.9938 7.36461 50.3223C8.65361 50.6456 9.58324 51.7536 9.67786 53.0791C9.77386 54.4259 10.3965 55.6454 11.4307 56.5131C12.4651 57.3809 13.7741 57.7823 15.117 57.643C16.4392 57.506 17.6914 58.2291 18.2335 59.4424C18.7844 60.675 19.7866 61.6081 21.0551 62.0699C22.3237 62.5316 23.6914 62.4609 24.9056 61.8708C26.1007 61.2901 27.525 61.541 28.4496 62.4956C29.3891 63.4659 30.6499 64 32 64C33.3501 64 34.6109 63.4659 35.5502 62.4961C36.4747 61.5414 37.899 61.2903 39.0944 61.8714C40.3086 62.4615 41.676 62.5321 42.9447 62.0704C44.2134 61.6086 45.2156 60.6755 45.7665 59.4429C46.3089 58.2296 47.5615 57.5061 48.883 57.6435C50.2264 57.7826 51.535 57.3815 52.5692 56.5136C53.6035 55.6459 54.226 54.4264 54.3221 53.0796C54.4166 51.7541 55.3464 50.6461 56.6354 50.3228C57.945 49.9943 59.0379 49.1694 59.713 48.0001C60.388 46.8309 60.5559 45.4721 60.1856 44.1738C59.8212 42.8956 60.3157 41.5366 61.4165 40.792C62.5347 40.0355 63.2796 38.8866 63.5141 37.5571C63.7485 36.2275 63.4415 34.8932 62.6495 33.7998C61.8696 32.7231 61.8696 31.2769 62.6492 30.2006ZM61.1309 34.8993C61.6224 35.5779 61.813 36.406 61.6676 37.2314C61.522 38.0565 61.0599 38.7696 60.3656 39.2391C58.5922 40.4391 57.7952 42.6287 58.3825 44.6879C58.6122 45.4936 58.5081 46.337 58.0892 47.0628C57.6702 47.7885 56.9919 48.3004 56.1792 48.5042C54.1022 49.0252 52.6045 50.8102 52.452 52.9461C52.3924 53.782 52.006 54.5389 51.3641 55.0776C50.7222 55.6162 49.9096 55.865 49.0764 55.7789C46.9462 55.5576 44.9285 56.7234 44.0547 58.6781C43.7127 59.4432 43.0909 60.0223 42.3035 60.3089C41.516 60.5955 40.6675 60.5516 39.9137 60.1855C37.9877 59.2495 35.6931 59.654 34.2034 61.1922C33.6205 61.7941 32.8379 62.1256 32 62.1256C31.162 62.1256 30.3795 61.7941 29.7966 61.1922C28.8419 60.2064 27.5564 59.6862 26.249 59.6862C25.5167 59.6862 24.7776 59.8495 24.0862 60.1855C23.3327 60.5516 22.4839 60.5956 21.6966 60.309C20.9091 60.0224 20.2872 59.4434 19.9452 58.6782C19.0716 56.7235 17.0535 55.5576 14.9236 55.779C14.0899 55.8654 13.2777 55.6165 12.6359 55.0778C11.994 54.539 11.6076 53.7821 11.548 52.9463C11.3955 50.8104 9.89774 49.0254 7.82074 48.5044C7.00799 48.3004 6.32961 47.7885 5.91074 47.0629C5.49174 46.3371 5.38761 45.494 5.61749 44.688C6.20486 42.6289 5.40774 40.4391 3.63436 39.2393C2.94036 38.7697 2.47811 38.0566 2.33249 37.2315C2.18699 36.4062 2.37761 35.5781 2.86911 34.8994C4.12524 33.1653 4.12524 30.8353 2.86911 29.1011C2.37761 28.4225 2.18699 27.5944 2.33249 26.769C2.47811 25.9439 2.94024 25.2307 3.63449 24.7612C5.40786 23.5612 6.20486 21.3716 5.61761 19.3125C5.38786 18.5068 5.49199 17.6634 5.91086 16.9376C6.32974 16.2119 7.00824 15.7 7.82086 15.4961C9.89786 14.9751 11.3956 13.1901 11.5481 11.0542C11.6077 10.2184 11.9941 9.4615 12.636 8.92275C13.2779 8.38413 14.091 8.13513 14.9237 8.2215C17.0542 8.44338 19.0716 7.27712 19.9454 5.32225C20.2874 4.55713 20.9092 3.97812 21.6966 3.6915C22.484 3.40475 23.3327 3.44875 24.0864 3.81487C26.0124 4.75087 28.307 4.34637 29.7967 2.80813C30.3796 2.20625 31.1622 1.87475 32.0001 1.87475C32.8381 1.87475 33.6206 2.20625 34.2035 2.80813C35.693 4.34613 37.9876 4.7505 39.9139 3.815C40.6674 3.44875 41.5162 3.40475 42.3035 3.6915C43.091 3.97812 43.7129 4.55713 44.0549 5.32225C44.9285 7.27712 46.9469 8.44313 49.0764 8.2215C49.9096 8.13513 50.7222 8.384 51.3641 8.92275C52.006 9.4615 52.3924 10.2184 52.452 11.0542C52.6045 13.1901 54.1022 14.9751 56.1792 15.4961C56.992 15.7001 57.6704 16.212 58.0892 16.9376C58.5081 17.6634 58.6124 18.5066 58.3825 19.3125C57.7951 21.3716 58.5922 23.5614 60.3656 24.7612C61.0596 25.2307 61.5219 25.9439 61.6675 26.769C61.813 27.5942 61.6224 28.4224 61.1307 29.1011C59.8746 30.8349 59.8746 33.1651 61.1309 34.8993Z" fill="#F2994A"/>
</svg>
