<svg width="20" height="20" viewBox="0 0 20 20" fill="none" xmlns="http://www.w3.org/2000/svg">
<path d="M10.0001 0.767822C14.2311 0.767822 17.6608 4.19746 17.6608 8.42854C17.6608 11.6657 15.3861 15.1935 10.8958 19.0498C10.6461 19.2643 10.3278 19.3821 9.9986 19.3818C9.66944 19.3815 9.3513 19.2632 9.102 19.0483L8.805 18.7905C4.51343 15.0348 2.33936 11.5934 2.33936 8.42854C2.33936 4.19746 5.769 0.767822 10.0001 0.767822ZM10.0001 5.48211C9.21863 5.48211 8.46919 5.79253 7.91663 6.3451C7.36407 6.89766 7.05364 7.64709 7.05364 8.42854C7.05364 9.20998 7.36407 9.95941 7.91663 10.512C8.46919 11.0645 9.21863 11.375 10.0001 11.375C10.7815 11.375 11.5309 11.0645 12.0835 10.512C12.6361 9.95941 12.9465 9.20998 12.9465 8.42854C12.9465 7.64709 12.6361 6.89766 12.0835 6.3451C11.5309 5.79253 10.7815 5.48211 10.0001 5.48211Z" fill="#333A5B"/>
</svg>
