<svg width="64" height="64" viewBox="0 0 64 64" fill="none" xmlns="http://www.w3.org/2000/svg">
<path d="M48 33C45.472 33 43.092 33.635 41 34.744V29.257C43.092 30.365 45.472 31 48 31C56.271 31 63 24.271 63 16C63 7.729 56.271 1 48 1C42.137 1 37.063 4.389 34.597 9.303L24.398 1.787C23.018 0.771 20.982 0.77 19.602 1.788L1 15.495V21H3V40.548C1.735 42.747 1 45.287 1 48C1 56.271 7.729 63 16 63C24.271 63 31 56.271 31 48C31 46.973 30.895 45.97 30.698 45H33.303C33.105 45.97 33 46.973 33 48C33 56.271 39.729 63 48 63C56.271 63 63 56.271 63 48C63 39.729 56.271 33 48 33ZM48 3C55.168 3 61 8.832 61 16C61 23.168 55.168 29 48 29C40.832 29 35 23.168 35 16C35 8.832 40.832 3 48 3ZM33.051 17C33.096 17.678 33.17 18.349 33.303 19H23V17H33.051ZM27.542 6.588L25 9.638V13H27V11.618L29.553 12.894L30.448 11.105L27.578 9.67L29.156 7.776L33.803 11.2C33.394 12.406 33.14 13.679 33.052 14.999H23V3.291C23.069 3.329 23.148 3.35 23.212 3.397L27.542 6.588ZM20.788 3.398C20.852 3.351 20.93 3.33 21 3.292V15H5.042L12.326 9.633L13.288 11.877L18.804 12.981L19.197 11.02L14.713 10.124L13.98 8.415L20.788 3.398ZM3 17H21V19H3V17ZM5 21H21V33.875C20.35 33.644 19.687 33.442 19 33.302V23H7V36.028C6.28 36.571 5.611 37.175 5 37.836V21ZM17 33.051C16.668 33.029 16.338 33 16 33C13.472 33 11.092 33.635 9 34.744V25H17V33.051ZM16 61C8.832 61 3 55.168 3 48C3 40.832 8.832 35 16 35C23.168 35 29 40.832 29 48C29 55.168 23.168 61 16 61ZM30.125 43C28.861 39.44 26.3 36.493 23 34.744V21H33.875C34.39 22.449 35.119 23.794 36.028 25H25V35H37V26.164C37.611 26.825 38.28 27.429 39 27.972V36.029C36.669 37.785 34.87 40.2 33.875 43H30.125ZM35 27V33H27V27H35ZM48 61C40.832 61 35 55.168 35 48C35 40.832 40.832 35 48 35C55.168 35 61 40.832 61 48C61 55.168 55.168 61 48 61Z" fill="#F2994A"/>
<path d="M22 39H14C12.698 39 11.598 39.839 11.184 41H7V46.781L15 48.781V51.184C13.839 51.598 13 52.698 13 54V56C13 57.654 14.346 59 16 59C17.654 59 19 57.654 19 56V54C19 52.698 18.161 51.598 17 51.184V47.218L9 45.218V43H11.184C11.598 44.161 12.698 45 14 45H22C23.654 45 25 43.654 25 42C25 40.346 23.654 39 22 39ZM17 56C17 56.552 16.551 57 16 57C15.449 57 15 56.552 15 56V54C15 53.448 15.449 53 16 53C16.551 53 17 53.448 17 54V56ZM22 43H14C13.449 43 13 42.552 13 42C13 41.448 13.449 41 14 41H22C22.551 41 23 41.448 23 42C23 42.552 22.551 43 22 43Z" fill="#F2994A"/>
<path d="M44 19C44.518 19 45.036 18.93 45.547 18.789L50.879 24.121C51.445 24.688 52.199 25 53 25C53.801 25 54.555 24.687 55.121 24.121C55.688 23.555 56 22.801 56 22C56 21.199 55.688 20.445 55.121 19.879L49.789 14.547C49.929 14.036 50 13.519 50 13C50 9.691 47.309 7 44 7H43.586L41.586 9L43.964 11.378C43.811 12.179 43.178 12.811 42.379 12.964L40 10.586L38 12.586V13C38 16.309 40.691 19 44 19ZM41.586 15H42C44.206 15 46 13.206 46 11V10.586L44.438 9.023C46.438 9.242 48 10.942 48 13C48 13.483 47.904 13.973 47.716 14.453L47.476 15.062L53.707 21.292C53.898 21.484 54 21.729 54 22C54 22.271 53.898 22.516 53.707 22.707C53.323 23.09 52.677 23.09 52.293 22.707L46.063 16.477L45.454 16.716C44.972 16.904 44.483 17 44 17C41.942 17 40.243 15.438 40.024 13.438L41.586 15Z" fill="#F2994A"/>
<path d="M44.987 41.929L43.219 42.634L47.586 47L45.276 49.311C44.165 48.81 42.766 48.992 41.88 49.879L39.88 51.879C39.312 52.445 39 53.199 39 54C39 54.801 39.312 55.555 39.879 56.121C40.445 56.688 41.199 57 42 57C42.801 57 43.555 56.687 44.121 56.121L46.121 54.121C46.688 53.555 47 52.801 47 52C47 51.546 46.89 51.113 46.7 50.715L49 48.415L53.365 52.78L54.072 51.014C55.351 47.813 56 44.444 56 41V40H55C51.553 40 48.184 40.649 44.987 41.929ZM44.707 52.707L42.707 54.707C42.323 55.09 41.677 55.09 41.293 54.707C41.102 54.516 41 54.271 41 54C41 53.729 41.102 53.484 41.293 53.293L43.293 51.293C43.485 51.102 43.729 51 44 51C44.271 51 44.515 51.102 44.707 51.293C44.898 51.484 45 51.729 45 52C45 52.271 44.898 52.516 44.707 52.707ZM52.615 49.2L46.8 43.385C49.118 42.577 51.525 42.12 53.98 42.021C53.88 44.475 53.423 46.882 52.615 49.2Z" fill="#F2994A"/>
</svg>
