<svg width="20" height="20" viewBox="0 0 20 20" fill="none" xmlns="http://www.w3.org/2000/svg">
<path d="M19.3724 4.37237L15.6276 0.627634C15.2258 0.22577 14.6807 2.97177e-06 14.1124 0H2.14286C0.959375 0 0 0.959375 0 2.14286V17.8571C0 19.0406 0.959375 20 2.14286 20H17.8571C19.0406 20 20 19.0406 20 17.8571V5.88759C20 5.31927 19.7742 4.77423 19.3724 4.37237ZM10 17.1429C8.42205 17.1429 7.14286 15.8637 7.14286 14.2857C7.14286 12.7078 8.42205 11.4286 10 11.4286C11.5779 11.4286 12.8571 12.7078 12.8571 14.2857C12.8571 15.8637 11.5779 17.1429 10 17.1429ZM14.2857 3.54821V8.03571C14.2857 8.33156 14.0458 8.57143 13.75 8.57143H3.39286C3.09701 8.57143 2.85714 8.33156 2.85714 8.03571V3.39286C2.85714 3.09701 3.09701 2.85714 3.39286 2.85714H13.5946C13.7367 2.85714 13.873 2.91357 13.9734 3.01406L14.1288 3.16942C14.1785 3.21916 14.218 3.27821 14.2449 3.34321C14.2719 3.4082 14.2857 3.47786 14.2857 3.54821Z" fill="white"/>
</svg>