<svg width="64" height="64" viewBox="0 0 64 64" fill="none" xmlns="http://www.w3.org/2000/svg">
<path d="M62.7497 40.75H1.24975C-0.408746 40.816 -0.407496 43.1846 1.24975 43.25H7.42463C11.7513 53.9695 19.6888 60.7452 31.6764 63.9574C31.8884 64.0141 32.1115 64.0141 32.3235 63.9574C44.3116 60.7451 52.2494 53.9692 56.5759 43.25H62.7497C64.4082 43.1839 64.407 40.8155 62.7497 40.75ZM48.3267 43.25C47.993 43.8877 47.6415 44.5019 47.2754 45.0861C43.9254 50.4329 38.9264 54.0857 31.9996 56.245C25.073 54.0857 20.0739 50.4329 16.7239 45.0861C16.3578 44.5019 16.0063 43.8879 15.6725 43.2501H48.3267V43.25ZM31.9998 61.4547C21.3586 58.5231 14.19 52.5582 10.1354 43.25H12.8805C13.4075 44.3634 13.987 45.426 14.6056 46.4134C18.3488 52.3877 23.9205 56.4227 31.6391 58.7492C31.8744 58.8201 32.1252 58.8201 32.3605 58.7492C40.0792 56.4229 45.651 52.3877 49.3941 46.4135C50.0127 45.426 50.5921 44.3634 51.1191 43.25H53.8652C49.8105 52.5581 42.6415 58.523 31.9998 61.4547Z" fill="#F2994A"/>
<path d="M1.25029 23.25H62.7503C64.4088 23.1839 64.4075 20.8155 62.7503 20.75H60.6492C60.717 18.9463 60.75 17.0554 60.75 15C60.75 14.3096 60.1903 13.75 59.5 13.75C52.6077 13.75 47.0003 8.1425 47.0003 1.25C47.0003 0.559625 46.4405 0 45.7503 0H18.2503C17.5599 0 17.0003 0.559625 17.0003 1.25C17.0003 8.1425 11.3929 13.75 4.50041 13.75C3.81004 13.75 3.25041 14.3096 3.25041 15C3.25041 17.058 3.28341 18.9489 3.35104 20.75H1.25029C-0.408336 20.816 -0.406961 23.1846 1.25029 23.25ZM5.75441 16.198C13.0289 15.5935 18.8455 9.77488 19.4487 2.5H44.5518C45.1549 9.77488 50.9715 15.5935 58.2462 16.198C58.2354 17.8008 58.2028 19.3043 58.1473 20.75H55.6505C55.6682 20.2881 55.6834 19.8181 55.6962 19.3444C55.7117 18.7712 55.3352 18.261 54.7829 18.1068C48.9094 16.4661 44.2524 11.7954 42.6294 5.91725C42.4798 5.37538 41.9867 5 41.4244 5H37.6248C35.9663 5.06612 35.9675 7.4345 37.6248 7.5H40.4972C42.4643 13.4732 47.2038 18.2329 53.1679 20.2257C53.1618 20.4016 53.1554 20.5764 53.1487 20.75H10.8518C10.845 20.5764 10.8387 20.4016 10.8325 20.2257C16.7965 18.2329 21.5362 13.4732 23.5034 7.5H26.3749C28.0334 7.434 28.0322 5.06537 26.3749 5H22.576C22.0138 5 21.5208 5.37538 21.3712 5.91725C19.7482 11.7954 15.0912 16.4663 9.21766 18.1068C8.66554 18.261 8.28904 18.771 8.30441 19.3441C8.31704 19.8178 8.33229 20.2879 8.34991 20.7499H5.85279C5.79754 19.3059 5.76504 17.8025 5.75441 16.198Z" fill="#F2994A"/>
<path d="M31.9997 7.5C33.658 7.434 33.6568 5.06538 31.9997 5H31.9988C30.3403 5.06625 30.3425 7.43475 31.9997 7.5Z" fill="#F2994A"/>
<path d="M20.2573 38.25C20.9477 38.25 21.5073 37.6904 21.5073 37V34.2856C22.9623 33.7697 24.0073 32.3795 24.0073 30.7499V27C23.9413 25.3415 21.5727 25.3427 21.5073 27V30.7499C21.4384 32.4086 19.0754 32.4072 19.0073 30.7499V27C18.9413 25.3415 16.5727 25.3427 16.5073 27V30.7499C16.5073 32.3795 17.5523 33.7697 19.0073 34.2856V37C19.0073 37.6904 19.5669 38.25 20.2573 38.25Z" fill="#F2994A"/>
<path d="M31.5073 28.25C33.166 28.184 33.1647 25.8154 31.5073 25.75H27.1323C26.4419 25.75 25.8823 26.3096 25.8823 27V37C25.8823 37.6904 26.4419 38.25 27.1323 38.25H31.5073C33.166 38.184 33.1647 35.8154 31.5073 35.75H28.3823V33.25H29.7573C31.4158 33.184 31.4146 30.8154 29.7573 30.75H28.3823V28.25H31.5073Z" fill="#F2994A"/>
<path d="M40.6323 38.25C41.3226 38.25 41.8823 37.6904 41.8823 37V29.5C41.6757 24.5239 34.5871 24.5277 34.3823 29.5V37C34.4483 38.6585 36.8168 38.6572 36.8823 37V34.4999H39.3823V37C39.3823 37.6904 39.9421 38.25 40.6323 38.25ZM36.8823 31.9999V29.5C36.9512 27.8412 39.3141 27.8426 39.3823 29.5V31.9999H36.8823Z" fill="#F2994A"/>
<path d="M51.2579 29.5C51.2579 27.4323 49.5757 25.75 47.5078 25.75H45.0078C44.3176 25.75 43.7578 26.3096 43.7578 27V37C43.8238 38.6585 46.1923 38.6573 46.2578 37V33.25H46.7353L48.8899 37.559C49.1998 38.1827 49.9628 38.424 50.5671 38.118C51.1844 37.8092 51.4347 37.0584 51.1261 36.4409L49.3017 32.7924C50.4663 32.1554 51.2579 30.9184 51.2579 29.5ZM46.2578 28.25H47.5078C49.1574 28.3175 49.1697 30.663 47.5234 30.7498C47.5091 30.7495 47.4948 30.7496 47.4804 30.75H46.2579V28.25H46.2578Z" fill="#F2994A"/>
<path d="M56.7477 35.6564C56.4482 35.7802 56.1207 35.7814 55.8255 35.6591L55.161 35.3839C54.523 35.1199 53.7921 35.4226 53.5277 36.0604C53.2636 36.6981 53.5665 37.4294 54.2042 37.6935L54.8689 37.9689C56.6905 38.7674 58.9892 37.8136 59.7114 35.9629C60.4934 34.0749 59.5936 31.9026 57.7055 31.1204L56.3762 30.5699C55.7775 30.3369 55.4649 29.5817 55.7235 28.9936C55.8457 28.6985 56.0779 28.4676 56.3772 28.3436C56.6769 28.2197 57.0045 28.2187 57.2995 28.341L57.9641 28.6162C58.6017 28.8804 59.3331 28.5776 59.5972 27.9396C59.8614 27.3017 59.5584 26.5706 58.9206 26.3065L58.256 26.0312C57.3437 25.6535 56.3367 25.6544 55.4205 26.034C54.504 26.4136 53.7912 27.1251 53.4136 28.037C53.0357 28.9491 53.0366 29.9562 53.4162 30.8726C53.7959 31.789 54.5072 32.5017 55.4194 32.8796L56.7486 33.4301C57.3631 33.6846 57.656 34.3917 57.4014 35.0064C57.2794 35.3015 57.0471 35.5324 56.7477 35.6564Z" fill="#F2994A"/>
<path d="M7.75708 25.75H5.25708C3.59858 25.816 3.59983 28.1847 5.25708 28.25H7.75708C9.41608 28.3192 9.41433 30.6818 7.75708 30.7502C7.0667 30.7502 6.50708 31.3098 6.50708 32.0002C6.50708 32.6905 7.0667 33.2502 7.75708 33.2502C9.41495 33.3184 9.4152 35.6818 7.75708 35.7502H5.25708C3.59858 35.8162 3.59983 38.1848 5.25708 38.2502H7.75708C10.9867 38.2614 12.6998 34.3645 10.5498 32.0002C12.7007 29.6347 10.9852 25.7383 7.75708 25.75Z" fill="#F2994A"/>
</svg>
